<?xml version="1.0" standalone="no"?>
<!DOCTYPE svg PUBLIC "-//W3C//DTD SVG 20010904//EN"
 "http://www.w3.org/TR/2001/REC-SVG-20010904/DTD/svg10.dtd">
<svg version="1.0" xmlns="http://www.w3.org/2000/svg"
 width="2052.000000pt" height="378.000000pt" viewBox="0 0 2052.000000 378.000000"
 preserveAspectRatio="xMidYMid meet">

<g transform="translate(0.000000,378.000000) scale(0.100000,-0.100000)"
fill="#000000" stroke="none">
<path d="M3446 3770 c-35 -11 -63 -36 -83 -74 -27 -51 -12 -104 65 -238 134
-235 191 -371 242 -580 51 -209 64 -328 64 -583 0 -226 0 -232 -31 -347 -41
-152 -108 -320 -194 -485 -88 -171 -157 -284 -353 -583 -199 -304 -236 -373
-236 -441 0 -42 5 -55 28 -79 59 -58 148 -50 309 29 197 97 386 243 633 491
431 431 661 848 702 1270 20 207 -25 401 -153 660 -193 389 -569 805 -841 930
-75 34 -113 41 -152 30z"/>
<path d="M14315 3665 c-11 -2 -46 -7 -77 -10 l-58 -6 0 -1069 c0 -1197 -2
-1161 70 -1306 49 -100 120 -169 223 -218 111 -52 162 -61 342 -60 143 1 184
5 385 43 l225 42 67 -31 c38 -18 112 -41 166 -53 196 -43 666 -22 867 38 62
18 119 64 148 118 22 42 22 47 25 562 3 555 -1 631 -43 764 -128 403 -618 541
-1284 361 l-84 -23 7 -76 c11 -140 41 -201 116 -239 51 -26 64 -26 258 3 105
16 140 17 230 8 213 -21 302 -99 302 -264 l0 -54 -159 4 c-345 7 -574 -60
-728 -214 -122 -122 -158 -225 -151 -432 l4 -122 -26 -5 c-79 -16 -164 -26
-231 -26 -138 0 -197 55 -219 205 -6 42 -10 429 -10 970 l0 900 -24 50 c-24
52 -64 93 -119 122 -30 15 -174 27 -222 18z m1828 -1790 l57 -6 -2 -242 -3
-242 -75 -13 c-90 -16 -242 -10 -318 13 -114 35 -183 141 -168 259 19 140 110
214 294 236 66 8 100 7 215 -5z"/>
<path d="M10455 3641 l-40 -6 0 -1095 c0 -1030 1 -1099 18 -1160 59 -209 200
-342 410 -386 116 -25 350 -14 566 26 l174 32 66 -26 c36 -15 90 -31 120 -36
102 -19 344 -11 459 15 l22 5 0 -434 0 -435 44 -6 c24 -4 97 -8 162 -8 112 -2
122 0 171 25 28 15 63 43 77 61 55 72 56 80 56 432 l0 326 58 -7 c107 -15 319
-7 432 16 235 48 438 170 554 334 130 182 186 380 186 652 0 240 -29 385 -111
553 -43 88 -64 117 -133 186 -135 135 -283 195 -486 195 -117 0 -202 -20 -292
-67 -86 -45 -155 -106 -204 -180 l-38 -57 -11 55 c-14 69 -34 99 -87 129 -37
21 -58 25 -153 28 -66 1 -132 -3 -165 -10 l-55 -13 -3 -687 -2 -686 -92 -17
c-183 -33 -273 3 -315 128 -16 48 -18 134 -23 1008 l-5 956 -30 49 c-19 30
-49 60 -80 79 -48 30 -49 30 -199 30 -83 0 -159 -3 -169 -7 -17 -7 -18 -60
-15 -1118 l3 -1110 -55 -12 c-82 -18 -197 -15 -243 7 -45 21 -81 71 -98 135
-9 33 -14 291 -18 996 l-6 951 -30 49 c-19 30 -49 60 -79 79 -48 29 -54 30
-175 31 -69 1 -144 -1 -166 -5z m2773 -1201 c157 -69 231 -251 219 -540 -8
-198 -45 -311 -133 -409 -103 -115 -311 -160 -508 -110 l-46 11 0 357 c0 374
6 439 48 534 39 87 118 154 209 177 55 13 156 4 211 -20z"/>
<path d="M2000 3270 c-224 -31 -441 -99 -628 -195 -351 -180 -600 -470 -689
-800 -24 -92 -27 -116 -27 -295 -1 -214 13 -305 76 -495 120 -362 391 -713
633 -820 389 -173 1035 75 1474 565 260 289 433 605 497 905 25 121 24 325 -5
440 -86 352 -353 584 -776 675 -113 24 -438 36 -555 20z m293 -676 c238 -53
388 -225 387 -444 -1 -226 -177 -524 -414 -701 -240 -179 -492 -220 -648 -104
-110 81 -227 269 -269 430 -29 111 -29 266 0 355 72 223 283 399 555 460 106
24 291 26 389 4z"/>
<path d="M20285 2955 c-5 -2 -22 -6 -37 -9 -37 -8 -85 -51 -109 -99 -32 -61
-24 -153 17 -204 47 -59 106 -86 177 -80 106 9 177 84 177 188 0 32 -5 70 -11
86 -12 34 -55 80 -89 98 -26 14 -108 27 -125 20z m92 -36 c38 -14 83 -57 99
-96 41 -96 -25 -216 -133 -238 -74 -15 -168 43 -193 120 -35 107 48 223 162
225 20 0 49 -5 65 -11z"/>
<path d="M20240 2760 c0 -91 3 -110 15 -110 11 0 15 12 15 45 0 43 2 45 28 45
41 0 72 -26 72 -61 0 -19 5 -29 15 -29 21 0 20 64 -1 85 -15 15 -15 17 1 28
11 9 16 24 13 47 -4 43 -33 60 -105 60 l-53 0 0 -110z m118 68 c32 -32 1 -68
-57 -68 -29 0 -31 2 -31 40 0 40 0 40 38 40 21 0 43 -5 50 -12z"/>
<path d="M19020 2909 c-117 -12 -238 -35 -349 -66 l-94 -26 6 -81 c8 -110 23
-154 66 -197 52 -52 105 -66 189 -51 232 43 414 38 520 -14 84 -41 132 -123
132 -228 l0 -52 -155 4 c-308 9 -519 -43 -685 -167 -67 -50 -143 -148 -170
-219 -59 -156 -48 -370 27 -521 34 -69 129 -167 203 -208 212 -121 591 -146
1020 -67 148 27 226 88 249 197 14 63 14 941 1 1076 -20 188 -75 318 -179 421
-166 165 -437 234 -781 199z m415 -1035 l55 -6 -2 -241 -3 -241 -75 -14 c-101
-18 -260 -9 -334 18 -128 48 -181 161 -144 308 15 62 77 123 152 151 100 37
186 43 351 25z"/>
<path d="M6610 2889 c-69 -12 -189 -68 -256 -120 -28 -22 -71 -66 -95 -99 -23
-32 -46 -57 -50 -55 -4 3 -10 29 -13 59 -4 31 -15 83 -24 118 -16 58 -19 63
-52 70 -48 12 -262 14 -332 5 l-58 -8 0 -934 0 -934 58 -8 c31 -4 107 -8 167
-8 121 0 163 14 216 72 66 70 63 51 70 583 7 522 9 552 63 658 30 59 100 125
152 143 21 7 77 14 124 14 105 0 152 -21 193 -86 54 -87 57 -128 57 -776 l0
-592 58 -8 c31 -4 107 -8 167 -8 121 0 163 14 216 72 66 70 63 49 70 593 6
527 7 538 59 645 52 108 179 174 310 162 80 -7 129 -34 163 -88 54 -87 57
-128 57 -776 l0 -592 58 -8 c31 -4 107 -8 167 -8 94 0 116 3 151 22 55 29 109
93 123 146 9 31 11 205 9 647 -4 584 -5 608 -26 688 -69 260 -213 383 -484
414 -127 14 -255 -1 -343 -40 -98 -44 -214 -148 -274 -246 l-23 -36 -30 61
c-59 117 -177 207 -322 244 -76 19 -254 27 -326 14z"/>
<path d="M9147 2889 c-123 -17 -344 -69 -376 -88 -11 -7 -11 -24 -1 -97 17
-133 41 -179 112 -215 46 -23 105 -24 217 -3 64 12 122 15 226 11 165 -6 218
-21 280 -81 47 -45 75 -117 75 -191 l0 -42 -197 1 c-220 1 -314 -13 -454 -64
-147 -53 -245 -128 -321 -245 -59 -91 -73 -148 -73 -305 0 -115 4 -146 24
-207 63 -195 229 -329 465 -377 223 -46 489 -39 810 20 115 22 170 57 209 134
l28 55 -4 580 c-3 566 -3 582 -25 653 -59 193 -159 311 -328 390 -130 59 -208
74 -414 78 -102 1 -216 -2 -253 -7z m516 -1034 c15 -7 17 -28 17 -245 l0 -238
-83 -12 c-120 -18 -279 -9 -342 19 -99 44 -144 112 -145 217 0 151 79 233 260
268 35 7 271 -1 293 -9z"/>
<path d="M16903 2793 c9 -128 63 -221 156 -267 71 -36 91 -39 327 -45 l222 -6
-385 -654 c-268 -455 -387 -665 -390 -692 -9 -62 2 -85 47 -103 36 -14 125
-16 800 -16 l760 0 0 58 c0 120 -54 246 -124 288 -67 41 -82 42 -438 43 -192
1 -348 3 -348 5 0 3 172 292 383 643 210 351 388 651 395 666 6 15 12 48 12
72 0 35 -5 48 -26 64 -26 21 -34 21 -712 21 l-685 0 6 -77z"/>
<path d="M227 1190 c-91 -23 -160 -80 -199 -165 -60 -134 7 -380 157 -575 233
-302 588 -468 955 -446 191 11 373 52 497 112 83 39 117 76 108 114 -12 51
-31 57 -207 63 -244 7 -397 53 -561 167 -151 103 -265 246 -377 470 -34 69
-78 144 -96 167 -60 74 -185 115 -277 93z"/>
</g>
</svg>
